# xmcd
#
# Track frame offsets: 
#        150
#        11290
#        22887
#        34040
#        44070
#        55087
#        65597
#        76215
#        87757
#        98767
#        110812
#        123417
#        133905
#        143460
#        155822
#        166245
#        176057
#        186847
#        197747
#        208187
#        223407
#        236937
#        252422
#        265910
#        281927
#        295075
#        310050
#        321830
#        333452
#
# Disc length: 4613 seconds
#
# Revision: 0
# Processed by: cddbd v1.5.2PL0 Copyright (c) Steve Scherf et al.
# Submitted via: ExactAudioCopy v0.95b4
#
DISCID=bb12031d
DTITLE=Garnet Mimms and The Enchanters - I'll Take Good Care Of You
DYEAR=1998
DGENRE=Soul
TTITLE0=There Goes My Baby
TTITLE1=Tell Me Baby
TTITLE2=Lookin' For You
TTITLE3=Prove It To Me
TTITLE4=A Little Bit Of Soap
TTITLE5=That Goes To Show You
TTITLE6=A Quiet Place
TTITLE7=Look Away
TTITLE8=Every Time
TTITLE9=As Long As I Have You
TTITLE10=It Was Easier To Hurt Her
TTITLE11=Stop And Think It Over
TTITLE12=Thinkin'
TTITLE13=Keep On Smilin'
TTITLE14=Nobody But You
TTITLE15=So Close
TTITLE16=Cry To Me
TTITLE17=Angel On My Doorstep
TTITLE18=One Woman Man
TTITLE19=Cry Baby
TTITLE20=For Your Precious Love
TTITLE21=Baby Don't You Weep
TTITLE22=One Girl
TTITLE23=I'll Take Good Care Of You
TTITLE24=Welcome Home
TTITLE25=Until You Were Gone
TTITLE26=The Truth Hurts
TTITLE27=Wanting You
TTITLE28=It's Just A Matter Of Time
EXTD=
EXTT0=
EXTT1=
EXTT2=
EXTT3=
EXTT4=
EXTT5=
EXTT6=
EXTT7=
EXTT8=
EXTT9=
EXTT10=
EXTT11=
EXTT12=
EXTT13=
EXTT14=
EXTT15=
EXTT16=
EXTT17=
EXTT18=
EXTT19=
EXTT20=
EXTT21=
EXTT22=
EXTT23=
EXTT24=
EXTT25=
EXTT26=
EXTT27=
EXTT28=
PLAYORDER=
